<svg xmlns="http://www.w3.org/2000/svg" xmlns:xlink="http://www.w3.org/1999/xlink" id="Layer_1" x="0" y="0" version="1.1" viewBox="0 0 504 504" xml:space="preserve" style="enable-background:new 0 0 504 504"><circle style="fill:#fd8469" cx="252" cy="252" r="252"/><path style="fill:#324a5e" d="M352,409.6H152c-7.2,0-12.8-5.6-12.8-12.8V107.2c0-7.2,5.6-12.8,12.8-12.8h200	c7.2,0,12.8,5.6,12.8,12.8v289.2C364.8,403.6,358.8,409.6,352,409.6z"/><rect style="fill:#e6e9ee" width="176.4" height="139.6" x="164" y="116.8"/><path style="fill:#f1543f" d="M252,145.6c9.2-11.6,22-14.4,31.6-10.8c22.8,8.8,28,41.6,8.4,62.4C252,240,252,240,252,240	s0,0-40-42.8c-19.6-20.8-14-53.6,8.4-62.4C230,131.2,242.8,134,252,145.6z"/><rect style="fill:#4cdbc4" width="26.8" height="28" x="164" y="273.2"/><g><rect style="fill:#ffd05b" width="26.8" height="28" x="215.2" y="273.2"/><rect style="fill:#ffd05b" width="26.8" height="28" x="266.8" y="273.2"/></g><rect style="fill:#ff7058" width="26.8" height="28" x="313.2" y="273.2"/><g><rect style="fill:#4cdbc4" width="26.8" height="28" x="164" y="317.2"/><rect style="fill:#4cdbc4" width="26.8" height="28" x="215.2" y="317.2"/><rect style="fill:#4cdbc4" width="26.8" height="28" x="266.8" y="317.2"/><rect style="fill:#4cdbc4" width="26.8" height="28" x="313.2" y="317.2"/><rect style="fill:#4cdbc4" width="26.8" height="28" x="164" y="361.6"/><rect style="fill:#4cdbc4" width="26.8" height="28" x="215.2" y="361.6"/><rect style="fill:#4cdbc4" width="26.8" height="28" x="266.8" y="361.6"/><rect style="fill:#4cdbc4" width="26.8" height="28" x="313.2" y="361.6"/></g></svg>